<svg width="378" height="281" viewBox="0 0 378 281" fill="none" xmlns="http://www.w3.org/2000/svg">
<g clip-path="url(#clip0_16_50)">
<path d="M205.664 28.6589C210.594 28.6589 214.589 24.6719 214.589 19.7537C214.589 14.8355 210.594 10.8485 205.664 10.8485C200.735 10.8485 196.74 14.8355 196.74 19.7537C196.74 24.6719 200.735 28.6589 205.664 28.6589Z" fill="#536DFE"/>
<path d="M204.78 23.1508C204.579 23.1511 204.384 23.0863 204.223 22.9661L204.213 22.9587L202.116 21.3577C202.019 21.2834 201.937 21.1907 201.876 21.085C201.815 20.9792 201.775 20.8625 201.759 20.7414C201.743 20.6203 201.751 20.4973 201.782 20.3793C201.814 20.2613 201.869 20.1507 201.943 20.0537C202.018 19.9568 202.11 19.8755 202.216 19.8144C202.322 19.7532 202.439 19.7136 202.561 19.6976C202.682 19.6816 202.805 19.6896 202.924 19.7211C203.042 19.7527 203.153 19.8072 203.25 19.8815L204.609 20.921L207.819 16.742C207.893 16.6451 207.986 16.5638 208.092 16.5027C208.198 16.4416 208.315 16.4019 208.436 16.3859C208.558 16.3699 208.681 16.378 208.799 16.4095C208.917 16.4411 209.028 16.4955 209.125 16.5698L209.125 16.57L209.106 16.5976L209.126 16.57C209.322 16.7202 209.45 16.9419 209.482 17.1863C209.515 17.4307 209.448 17.6779 209.298 17.8737L205.522 22.787C205.435 22.9002 205.323 22.9918 205.194 23.0547C205.065 23.1176 204.924 23.1501 204.781 23.1497L204.78 23.1508Z" fill="white"/>
<path d="M205.664 88.8607C210.594 88.8607 214.589 84.8737 214.589 79.9555C214.589 75.0373 210.594 71.0503 205.664 71.0503C200.735 71.0503 196.74 75.0373 196.74 79.9555C196.74 84.8737 200.735 88.8607 205.664 88.8607Z" fill="#536DFE"/>
<path d="M204.78 83.3525C204.579 83.3529 204.384 83.2881 204.223 83.1679L204.213 83.1604L202.116 81.5595C202.019 81.4852 201.937 81.3925 201.876 81.2868C201.815 81.181 201.775 81.0643 201.759 80.9432C201.743 80.8221 201.751 80.699 201.782 80.5811C201.814 80.4631 201.869 80.3525 201.943 80.2555C202.018 80.1586 202.11 80.0773 202.216 80.0161C202.322 79.955 202.439 79.9153 202.561 79.8993C202.682 79.8833 202.805 79.8914 202.924 79.9229C203.042 79.9545 203.153 80.009 203.25 80.0833L204.609 81.1228L207.819 76.9437C207.893 76.8468 207.986 76.7655 208.092 76.7044C208.198 76.6434 208.315 76.6037 208.436 76.5877C208.558 76.5717 208.681 76.5797 208.799 76.6113C208.917 76.6428 209.028 76.6973 209.125 76.7716L209.125 76.7718L209.106 76.7994L209.126 76.7718C209.322 76.922 209.45 77.1437 209.482 77.3881C209.515 77.6325 209.448 77.8797 209.298 78.0755L205.522 82.9887C205.435 83.102 205.323 83.1936 205.194 83.2565C205.065 83.3194 204.924 83.3519 204.781 83.3515L204.78 83.3525Z" fill="white"/>
<path d="M228.078 173.531C228.049 172.793 228.183 172.057 228.469 171.376C228.756 170.695 229.189 170.085 229.738 169.588C230.287 169.092 230.938 168.722 231.645 168.504C232.353 168.286 233.1 168.226 233.833 168.327L242.007 152.325L246.626 160.441L238.156 174.392C237.903 175.611 237.212 176.694 236.213 177.438C235.214 178.182 233.976 178.534 232.733 178.428C231.491 178.322 230.331 177.765 229.473 176.862C228.615 175.96 228.119 174.775 228.078 173.531L228.078 173.531Z" fill="#FFB7B7"/>
<path d="M266.186 274.292L259.771 274.291L256.72 249.603L266.187 249.604L266.186 274.292Z" fill="#FFB7B7"/>
<path d="M267.822 280.496L247.138 280.495V280.234C247.138 278.104 247.986 276.061 249.496 274.554C251.006 273.048 253.054 272.201 255.189 272.201H255.189L267.822 272.202L267.822 280.496Z" fill="#2F2E41"/>
<path d="M300.96 274.292L294.546 274.291L291.494 249.603L300.961 249.604L300.96 274.292Z" fill="#FFB7B7"/>
<path d="M302.596 280.496L281.912 280.495V280.234C281.913 278.104 282.761 276.061 284.271 274.554C285.78 273.048 287.828 272.201 289.963 272.201H289.964L302.597 272.202L302.596 280.496Z" fill="#2F2E41"/>
<path d="M237.931 159.605L235.13 164.262C235.13 164.262 239.798 164.262 240.731 171.247L244.465 166.59L237.931 159.605Z" fill="#E5E5E5"/>
<path d="M286.937 149.825C286.937 149.825 294.405 169.384 295.805 181.492C297.205 193.6 299.539 225.733 299.539 225.733L304.206 267.18L291.138 269.043L285.537 227.13L272.935 185.683L270.135 227.13L267.801 264.851L255.666 265.317L254.733 226.199L249.599 176.37L252.399 152.619L286.937 149.825Z" fill="#2F2E41"/>
<path d="M265.934 90.7345C272.378 90.7345 277.602 85.5221 277.602 79.0922C277.602 72.6623 272.378 67.4498 265.934 67.4498C259.49 67.4498 254.266 72.6623 254.266 79.0922C254.266 85.5221 259.49 90.7345 265.934 90.7345Z" fill="#FFB7B7"/>
<path d="M277.836 90.4494L282.503 93.7088L288.571 154.715L250.766 155.646L255.9 113.268L260.567 101.16L263.936 96.716L277.836 90.4494Z" fill="#E5E5E5"/>
<path d="M278.769 134.224L280.197 92.0986C280.197 92.0986 282.97 92.3119 283.903 93.709C284.837 95.1061 300.239 97.9003 300.239 97.9003L297.438 141.21C297.438 141.21 309.106 175.671 304.906 177.534C300.705 179.397 293.238 178.931 293.238 178.931L278.769 134.224Z" fill="#2F2E41"/>
<path d="M256.133 128.869L261.084 100.478L250.066 107.913L252.866 128.403L250.532 142.374C250.532 142.374 241.665 181.027 244.465 182.424C247.265 183.821 250.532 182.424 250.532 182.424L256.133 143.305V128.869Z" fill="#2F2E41"/>
<path d="M253.333 106.981L250.066 107.913L248.665 126.54L246.332 142.84L235.13 162.865C235.13 162.865 240.731 159.139 243.065 169.85L255.401 148.42L253.333 106.981Z" fill="#2F2E41"/>
<path d="M275.702 67.9995L277.903 67.1206C277.903 67.1206 273.302 62.0668 266.901 62.5063L268.701 60.5287C268.701 60.5287 264.301 58.7708 260.3 63.3852C258.197 65.8108 255.764 68.662 254.247 71.8739H251.891L252.874 74.0346L249.432 76.1953L252.965 75.8072C252.755 76.9904 252.722 78.1983 252.869 79.3911C253.021 80.5842 253.631 81.6718 254.571 82.4245C254.571 82.4245 257.3 76.7887 257.3 75.9098V78.1071C257.3 78.1071 259.5 76.1295 259.5 74.8112L260.7 76.3493L261.3 73.9322L268.701 76.3493L267.501 74.3717L272.102 75.0309L270.302 72.6138L277.425 82.5947C277.425 82.5947 281.503 71.2955 275.702 67.9995Z" fill="#2F2E41"/>
<path d="M278.72 169.712C278.835 168.982 279.109 168.286 279.523 167.674C279.937 167.061 280.48 166.546 281.115 166.166C281.75 165.785 282.46 165.548 283.197 165.472C283.933 165.395 284.678 165.48 285.378 165.722L296.509 151.608L299.461 160.464L288.438 172.509C287.954 173.655 287.065 174.584 285.94 175.12C284.815 175.656 283.532 175.762 282.334 175.417C281.136 175.073 280.106 174.301 279.44 173.25C278.774 172.198 278.518 170.94 278.72 169.712V169.712Z" fill="#FFB7B7"/>
<path d="M297.672 164.727L293.471 169.85L287.871 160.07L290.204 155.879L297.672 164.727Z" fill="#E5E5E5"/>
<path d="M296.738 99.5302L300.472 97.6674C300.472 97.6674 303.272 101.393 303.739 104.653C304.206 107.913 306.539 112.104 306.539 114.432C306.539 116.761 313.074 138.648 313.074 138.648L298.138 168.918C298.138 168.918 294.871 157.742 287.87 156.81L299.539 140.511L293.004 128.869L296.738 99.5302Z" fill="#2F2E41"/>
<path d="M377.529 280.783H197.937C197.812 280.783 197.693 280.733 197.604 280.645C197.516 280.557 197.466 280.437 197.466 280.313C197.466 280.188 197.516 280.068 197.604 279.98C197.693 279.892 197.812 279.842 197.937 279.842H377.529C377.654 279.842 377.774 279.892 377.862 279.98C377.95 280.068 378 280.188 378 280.313C378 280.437 377.95 280.557 377.862 280.645C377.774 280.733 377.654 280.783 377.529 280.783Z" fill="#CBCBCB"/>
<path d="M172.049 99.7092H0V60.2018H172.049V99.7092Z" fill="white"/>
<path d="M24.8306 73.2648C24.3865 73.2656 23.9608 73.4421 23.647 73.7557C23.3333 74.0693 23.157 74.4944 23.157 74.9375C23.157 75.3806 23.3333 75.8057 23.647 76.1193C23.9608 76.4329 24.3865 76.6094 24.8306 76.6102H147.226C147.67 76.6094 148.096 76.4329 148.409 76.1193C148.723 75.8057 148.899 75.3806 148.899 74.9375C148.899 74.4944 148.723 74.0693 148.409 73.7557C148.096 73.4421 147.67 73.2656 147.226 73.2648H24.8306Z" fill="#536DFE"/>
<path d="M24.8306 83.3008C24.6105 83.3004 24.3924 83.3432 24.1888 83.4268C23.9853 83.5104 23.8002 83.6333 23.6442 83.7883C23.4882 83.9432 23.3643 84.1274 23.2797 84.3301C23.195 84.5329 23.1512 84.7503 23.1507 84.97C23.1502 85.1896 23.1931 85.4072 23.277 85.6103C23.3608 85.8135 23.4839 85.9981 23.6392 86.1538C23.7945 86.3094 23.9791 86.433 24.1823 86.5175C24.3855 86.602 24.6034 86.6457 24.8235 86.6462H102.203C102.423 86.6465 102.642 86.6035 102.845 86.5197C103.049 86.4358 103.234 86.3126 103.39 86.1573C103.546 86.0019 103.67 85.8174 103.754 85.6143C103.839 85.4111 103.882 85.1934 103.882 84.9735C103.882 84.7536 103.839 84.5359 103.754 84.3328C103.67 84.1296 103.546 83.9451 103.39 83.7898C103.234 83.6344 103.049 83.5112 102.845 83.4274C102.642 83.3435 102.423 83.3005 102.203 83.3008H24.8306Z" fill="#536DFE"/>
<path d="M172.049 99.7092H0V60.2018H172.049V99.7092ZM2.82821 96.8872H169.221V63.0237H2.82821V96.8872Z" fill="#E5E5E5"/>
<path d="M172.049 159.911H0V120.404H172.049V159.911Z" fill="white"/>
<path d="M24.8306 133.467C24.3865 133.467 23.9608 133.644 23.647 133.957C23.3333 134.271 23.157 134.696 23.157 135.139C23.157 135.582 23.3333 136.007 23.647 136.321C23.9608 136.635 24.3865 136.811 24.8306 136.812H147.226C147.67 136.811 148.096 136.635 148.409 136.321C148.723 136.007 148.899 135.582 148.899 135.139C148.899 134.696 148.723 134.271 148.409 133.957C148.096 133.644 147.67 133.467 147.226 133.467H24.8306Z" fill="#E6E6E6"/>
<path d="M24.8306 143.503C24.6105 143.502 24.3924 143.545 24.1888 143.629C23.9853 143.712 23.8002 143.835 23.6442 143.99C23.4882 144.145 23.3643 144.329 23.2797 144.532C23.195 144.735 23.1512 144.952 23.1507 145.172C23.1502 145.391 23.1931 145.609 23.277 145.812C23.3608 146.015 23.4839 146.2 23.6392 146.356C23.7945 146.511 23.9791 146.635 24.1823 146.719C24.3855 146.804 24.6034 146.847 24.8235 146.848H102.203C102.423 146.848 102.642 146.805 102.845 146.721C103.049 146.638 103.234 146.514 103.39 146.359C103.546 146.204 103.67 146.019 103.754 145.816C103.839 145.613 103.882 145.395 103.882 145.175C103.882 144.955 103.839 144.738 103.754 144.535C103.67 144.331 103.546 144.147 103.39 143.992C103.234 143.836 103.049 143.713 102.845 143.629C102.642 143.545 102.423 143.502 102.203 143.503H24.8306Z" fill="#E6E6E6"/>
<path d="M172.049 159.911H0V120.404H172.049V159.911ZM2.82821 157.089H169.221V123.226H2.82821V157.089Z" fill="#E5E5E5"/>
<path d="M173.463 39.5074H1.41412V0H173.463V39.5074Z" fill="white"/>
<path d="M26.2447 13.063C25.8006 13.0638 25.3749 13.2404 25.0612 13.554C24.7474 13.8676 24.5712 14.2926 24.5712 14.7357C24.5712 15.1789 24.7474 15.6039 25.0612 15.9175C25.3749 16.2311 25.8006 16.4076 26.2447 16.4084H148.64C149.084 16.4076 149.51 16.2311 149.823 15.9175C150.137 15.6039 150.313 15.1789 150.313 14.7357C150.313 14.2926 150.137 13.8676 149.823 13.554C149.51 13.2404 149.084 13.0638 148.64 13.063H26.2447Z" fill="#536DFE"/>
<path d="M26.2447 23.0991C25.8001 23.0981 25.3734 23.2735 25.0583 23.5865C24.7433 23.8995 24.5658 24.3246 24.5648 24.7682C24.5639 25.2118 24.7396 25.6376 25.0533 25.952C25.367 26.2663 25.7931 26.4435 26.2377 26.4444H103.617C103.837 26.4448 104.056 26.4018 104.259 26.3179C104.463 26.234 104.648 26.1108 104.804 25.9555C104.96 25.8001 105.084 25.6156 105.168 25.4125C105.253 25.2094 105.296 24.9916 105.296 24.7717C105.296 24.5518 105.253 24.3341 105.168 24.131C105.084 23.9279 104.96 23.7433 104.804 23.588C104.648 23.4326 104.463 23.3095 104.259 23.2256C104.056 23.1417 103.837 23.0987 103.617 23.0991H26.2447Z" fill="#536DFE"/>
<path d="M173.463 39.5074H1.41412V0H173.463V39.5074ZM4.24233 36.6855H170.635V2.82196H4.24233V36.6855Z" fill="#E5E5E5"/>
<path d="M348.458 281V246.977C348.458 246.977 361.747 271.098 348.458 281Z" fill="#F1F1F1"/>
<path d="M349.279 280.994L324.16 257.985C324.16 257.985 350.955 264.53 349.279 280.994Z" fill="#F1F1F1"/>
<path d="M228.29 172.506C233.219 172.506 237.215 168.519 237.215 163.601C237.215 158.683 233.219 154.696 228.29 154.696C223.361 154.696 219.365 158.683 219.365 163.601C219.365 168.519 223.361 172.506 228.29 172.506Z" fill="#536DFE"/>
<path d="M227.406 166.998C227.205 166.998 227.009 166.934 226.849 166.813L226.839 166.806L224.741 165.205C224.644 165.131 224.562 165.038 224.501 164.932C224.44 164.826 224.4 164.71 224.384 164.589C224.368 164.467 224.376 164.344 224.407 164.226C224.439 164.108 224.494 163.998 224.568 163.901C224.643 163.804 224.736 163.722 224.842 163.661C224.948 163.6 225.065 163.56 225.186 163.544C225.308 163.528 225.431 163.536 225.549 163.568C225.668 163.6 225.778 163.654 225.876 163.729L227.234 164.768L230.445 160.589C230.519 160.492 230.612 160.411 230.718 160.35C230.824 160.289 230.941 160.249 231.062 160.233C231.183 160.217 231.307 160.225 231.425 160.257C231.543 160.288 231.654 160.343 231.751 160.417L231.751 160.417L231.731 160.445L231.752 160.417C231.948 160.568 232.076 160.789 232.108 161.034C232.14 161.278 232.074 161.525 231.924 161.721L228.148 166.634C228.061 166.747 227.948 166.839 227.82 166.902C227.691 166.965 227.55 166.997 227.406 166.997L227.406 166.998Z" fill="white"/>
</g>
<defs>
<clipPath id="clip0_16_50">
<rect width="378" height="281" fill="white"/>
</clipPath>
</defs>
</svg>
