<svg width="296" height="284" viewBox="0 0 296 284" fill="none" xmlns="http://www.w3.org/2000/svg">
<path d="M266.561 275.139C267.682 275.21 268.302 273.817 267.454 273.006L267.369 272.67C267.38 272.643 267.392 272.616 267.403 272.59C268.536 269.887 272.378 269.906 273.502 272.612C274.5 275.015 275.77 277.421 276.082 279.961C276.222 281.082 276.159 282.225 275.911 283.325C278.248 278.22 279.478 272.645 279.478 267.038C279.478 265.63 279.401 264.221 279.243 262.816C279.113 261.667 278.935 260.525 278.703 259.393C277.452 253.275 274.744 247.448 270.836 242.581C268.958 241.554 267.392 239.949 266.445 238.026C266.106 237.332 265.839 236.586 265.713 235.825C265.927 235.853 266.519 232.598 266.358 232.398C266.656 231.946 267.189 231.722 267.514 231.281C269.132 229.087 271.362 229.47 272.525 232.451C275.012 233.706 275.036 235.786 273.51 237.788C272.54 239.061 272.406 240.783 271.555 242.146C271.642 242.259 271.733 242.367 271.821 242.479C273.428 244.54 274.817 246.754 275.988 249.081C275.657 246.495 276.146 243.38 276.979 241.372C277.928 239.084 279.706 237.157 281.271 235.179C283.152 232.804 287.008 233.84 287.339 236.852C287.342 236.881 287.346 236.91 287.349 236.94C287.116 237.071 286.888 237.21 286.666 237.357C285.396 238.197 285.835 240.164 287.339 240.396L287.373 240.401C287.289 241.239 287.145 242.069 286.935 242.886C288.944 250.652 284.608 253.481 278.416 253.608C278.28 253.678 278.146 253.748 278.01 253.815C278.637 255.581 279.138 257.392 279.509 259.228C279.842 260.85 280.074 262.49 280.203 264.137C280.365 266.215 280.351 268.303 280.175 270.378L280.186 270.304C280.631 268.02 281.871 265.886 283.673 264.407C286.356 262.203 290.147 261.391 293.042 259.62C294.435 258.767 296.221 259.869 295.978 261.484L295.966 261.562C295.535 261.737 295.114 261.94 294.708 262.168C294.475 262.299 294.247 262.438 294.025 262.586C292.756 263.425 293.194 265.392 294.698 265.625L294.732 265.63C294.757 265.633 294.778 265.637 294.802 265.64C294.063 267.396 293.033 269.025 291.743 270.43C290.487 277.21 285.093 277.853 279.324 275.879H279.32C278.689 278.626 277.768 281.31 276.583 283.868H266.806C266.771 283.759 266.74 283.647 266.708 283.539C267.612 283.595 268.523 283.542 269.414 283.377C268.688 282.487 267.963 281.59 267.237 280.7C267.22 280.683 267.206 280.665 267.192 280.648C266.824 280.192 266.452 279.74 266.084 279.285L266.084 279.284C266.061 277.886 266.229 276.492 266.561 275.14L266.561 275.139V275.139Z" fill="#F2F2F2"/>
<path d="M86.6754 283.354C86.6754 283.713 86.9629 284 87.321 284H295.278C295.636 284 295.924 283.713 295.924 283.354C295.924 282.996 295.636 282.709 295.278 282.709H87.321C86.9629 282.709 86.6754 282.996 86.6754 283.354Z" fill="#CCCCCC"/>
<path d="M118.231 283.725H22.5101C10.8387 283.725 1.34312 274.23 1.34312 262.56V56.8709C1.34312 45.2006 10.8387 35.7061 22.5101 35.7061H118.231C129.902 35.7061 139.398 45.2006 139.398 56.8709V262.56C139.398 274.23 129.902 283.725 118.231 283.725Z" fill="#3F3D56"/>
<path d="M139.398 111.365C138.904 111.365 138.502 111.767 138.502 112.261V140.913C138.502 141.406 138.904 141.808 139.398 141.808C139.892 141.808 140.293 141.406 140.293 140.913V112.261C140.293 111.767 139.892 111.365 139.398 111.365Z" fill="#3F3D56"/>
<path d="M137.383 56.871V262.556C137.383 272.714 129.476 281.024 119.478 281.668H119.474C119.326 281.677 119.178 281.686 119.026 281.691C118.762 281.704 118.498 281.709 118.229 281.709C118.229 281.709 117.244 281.637 115.444 281.503C113.626 281.368 110.98 281.167 107.68 280.903C106.691 280.827 105.648 280.742 104.546 280.652C102.352 280.473 99.9436 280.276 97.3602 280.052C96.3304 279.967 95.2648 279.873 94.1768 279.779C88.6159 279.3 82.3879 278.74 75.8197 278.105C74.7093 278.002 73.59 277.894 72.4617 277.782C72.1662 277.751 71.8662 277.724 71.5662 277.693C66.8829 277.232 3.35812 264.956 3.35812 262.556V56.871C3.35812 46.2922 11.9322 37.719 22.5122 37.719H33.9473C35.7741 37.719 37.2426 39.1426 37.3993 40.9647C37.4128 41.0856 37.4262 41.2065 37.4486 41.3274C37.7799 43.1584 39.4589 44.4343 41.3215 44.4343H99.4198C101.282 44.4343 102.961 43.1584 103.293 41.3274C103.315 41.2065 103.328 41.0856 103.342 40.9647C103.499 39.1426 104.967 37.719 106.794 37.719H118.229C128.809 37.719 137.383 46.2922 137.383 56.871Z" fill="white"/>
<path d="M0.895466 89.8763C0.401602 89.8763 0 90.2778 0 90.7717V97.9346C0 98.4285 0.401607 98.83 0.895466 98.83C1.38932 98.83 1.79093 98.4285 1.79093 97.9346V90.7717C1.79093 90.2778 1.38932 89.8763 0.895466 89.8763Z" fill="#3F3D56"/>
<path d="M0.895466 111.365C0.401602 111.365 0 111.767 0 112.261V126.139C0 126.633 0.401607 127.034 0.895466 127.034C1.38932 127.034 1.79093 126.633 1.79093 126.139V112.261C1.79093 111.767 1.38932 111.365 0.895466 111.365Z" fill="#3F3D56"/>
<path d="M0.895466 131.063C0.401602 131.063 0 131.465 0 131.959V145.837C0 146.331 0.401607 146.733 0.895466 146.733C1.38932 146.733 1.79093 146.331 1.79093 145.837V131.959C1.79093 131.465 1.38932 131.063 0.895466 131.063Z" fill="#3F3D56"/>
<path d="M33.6356 40.8546H16.5106C16.4176 40.8546 16.3423 40.9299 16.3423 41.0228V42.9247C16.3423 43.0176 16.4176 43.093 16.5106 43.093H33.6356C33.7286 43.093 33.8039 43.0176 33.8039 42.9247V41.0228C33.8039 40.9299 33.7286 40.8546 33.6356 40.8546Z" fill="#E6E6E6"/>
<path d="M109.623 43.093C110.613 43.093 111.414 42.2912 111.414 41.3022C111.414 40.3132 110.613 39.5115 109.623 39.5115C108.634 39.5115 107.833 40.3132 107.833 41.3022C107.833 42.2912 108.634 43.093 109.623 43.093Z" fill="#E6E6E6"/>
<path d="M114.549 43.093C115.538 43.093 116.34 42.2912 116.34 41.3022C116.34 40.3132 115.538 39.5115 114.549 39.5115C113.559 39.5115 112.758 40.3132 112.758 41.3022C112.758 42.2912 113.559 43.093 114.549 43.093Z" fill="#E6E6E6"/>
<path d="M119.474 43.093C120.463 43.093 121.265 42.2912 121.265 41.3022C121.265 40.3132 120.463 39.5115 119.474 39.5115C118.485 39.5115 117.683 40.3132 117.683 41.3022C117.683 42.2912 118.485 43.093 119.474 43.093Z" fill="#E6E6E6"/>
<path d="M108.126 161.945H32.1675C30.9709 161.945 29.9973 160.972 29.9973 159.775C29.9973 158.579 30.9709 157.605 32.1675 157.605H108.126C109.322 157.605 110.296 158.579 110.296 159.775C110.296 160.972 109.322 161.945 108.126 161.945Z" fill="#E6E6E6"/>
<path d="M70.4191 246.033C87.7986 246.033 101.887 231.946 101.887 214.568C101.887 197.19 87.7986 183.103 70.4191 183.103C53.0395 183.103 38.9507 197.19 38.9507 214.568C38.9507 231.946 53.0395 246.033 70.4191 246.033Z" fill="#536DFE"/>
<path d="M75.4203 204.294C72.7646 204.403 69.7622 204.586 67.7993 206.623C66.0939 208.393 65.7202 211.02 67.4496 212.91C69.1834 214.805 71.8793 215.062 73.878 216.54C76.2248 218.276 75.8811 221.709 73.61 223.355C70.9319 225.294 67.4741 224.39 65.0258 222.544C64.3984 222.071 63.7894 223.131 64.4097 223.598C66.6032 225.252 69.4656 226.172 72.1777 225.381C74.6255 224.667 76.5229 222.671 76.7159 220.076C76.808 218.837 76.4557 217.579 75.6853 216.601C74.872 215.569 73.7005 214.933 72.5163 214.416C70.4778 213.526 66.9677 212.375 67.5604 209.477C68.2788 205.965 72.554 205.633 75.4203 205.515C76.2031 205.483 76.2072 204.262 75.4203 204.294L75.4203 204.294Z" fill="white"/>
<path d="M70.4935 202.633L70.3765 229.429C70.3731 230.215 71.5938 230.216 71.5972 229.429L71.7143 202.633C71.7177 201.847 70.497 201.846 70.4935 202.633Z" fill="white"/>
<path d="M237.145 0H81.9945C76.3031 0 71.6751 4.62752 71.6751 10.3184V116.627C71.6751 122.318 76.3031 126.945 81.9945 126.945H237.145C242.836 126.945 247.464 122.318 247.464 116.627V10.3184C247.464 4.62752 242.836 0 237.145 0Z" fill="white"/>
<path d="M158.856 63.21C168.445 63.21 176.218 55.4376 176.218 45.8499C176.218 36.2622 168.445 28.4899 158.856 28.4899C149.267 28.4899 141.494 36.2622 141.494 45.8499C141.494 55.4376 149.267 63.21 158.856 63.21Z" fill="#536DFE"/>
<path d="M162.15 38.1031C160.001 38.1917 157.581 38.3279 155.955 39.9271C154.609 41.2518 154.138 43.3139 155.375 44.8736C156.678 46.5158 158.845 46.8274 160.546 47.8768C161.603 48.529 162.303 49.5171 162.326 50.7869C162.347 51.9758 161.799 53.0864 160.881 53.8315C158.631 55.6596 155.561 54.9029 153.432 53.3041C153.013 52.9896 152.607 53.6957 153.022 54.0068C154.785 55.3309 157.055 56.0999 159.25 55.5302C161.269 55.0058 162.896 53.4171 163.115 51.2943C163.346 49.0569 161.876 47.5334 159.971 46.6594C158.23 45.8605 155.176 45.0093 155.463 42.5275C155.83 39.3719 159.693 39.0181 162.15 38.9168C162.671 38.8953 162.674 38.0815 162.15 38.1031V38.1031Z" fill="white"/>
<path d="M158.415 36.6274L158.317 58.9558C158.315 59.4795 159.129 59.4802 159.131 58.9558L159.229 36.6274C159.231 36.1037 158.417 36.103 158.415 36.6274Z" fill="white"/>
<path d="M237.145 0H81.9945C76.3031 0 71.6751 4.62752 71.6751 10.3184V116.627C71.6751 122.318 76.3031 126.945 81.9945 126.945H237.145C242.836 126.945 247.464 122.318 247.464 116.627V10.3184C247.464 4.62752 242.836 0 237.145 0ZM246.379 116.627C246.379 121.721 242.239 125.86 237.145 125.86H81.9945C76.8999 125.86 72.7602 121.721 72.7602 116.627V10.3184C72.7602 5.2243 76.8999 1.085 81.9945 1.085H237.145C242.239 1.085 246.379 5.22429 246.379 10.3184V116.627Z" fill="#3F3D56"/>
<path d="M141.681 10.4974H126.457C125.692 10.4974 125.068 11.1213 125.068 11.8862C125.068 12.6565 125.692 13.2804 126.457 13.2804H141.681C142.446 13.2804 143.07 12.6565 143.07 11.8862C143.07 11.1213 142.446 10.4974 141.681 10.4974Z" fill="#E6E6E6"/>
<path d="M167.182 10.4974H151.957C151.192 10.4974 150.568 11.1213 150.568 11.8862C150.568 12.6565 151.192 13.2804 151.957 13.2804H167.182C167.947 13.2804 168.571 12.6565 168.571 11.8862C168.571 11.1213 167.947 10.4974 167.182 10.4974Z" fill="#E6E6E6"/>
<path d="M192.682 10.4974H177.458C176.693 10.4974 176.069 11.1213 176.069 11.8862C176.069 12.6565 176.693 13.2804 177.458 13.2804H192.682C193.447 13.2804 194.071 12.6565 194.071 11.8862C194.071 11.1213 193.447 10.4974 192.682 10.4974Z" fill="#E6E6E6"/>
<path d="M217.792 72.975H101.348C96.5025 72.975 92.5636 76.9136 92.5636 81.7581V89.6895C92.5636 94.5341 96.5025 98.4726 101.348 98.4726H217.792C222.637 98.4726 226.576 94.5341 226.576 89.6895V81.7581C226.576 76.9136 222.637 72.975 217.792 72.975Z" fill="#536DFE"/>
<path d="M39.704 114.735L35.2388 112.62C37.0703 115.175 38.6484 119.167 39.4932 122.343C40.9237 119.384 43.2297 115.764 45.5122 113.602L40.793 114.816C43.701 100.566 54.6386 90.3351 67.1637 90.3351V89.2501C54.0809 89.2501 42.6732 99.909 39.704 114.735Z" fill="#3F3D56"/>
<path d="M60.2557 136.448H32.0427C30.846 136.448 29.8724 135.474 29.8724 134.278C29.8724 133.081 30.846 132.108 32.0427 132.108H60.2557C61.4524 132.108 62.4259 133.081 62.4259 134.278C62.4259 135.474 61.4524 136.448 60.2557 136.448Z" fill="#E6E6E6"/>
<path d="M247.938 129.38L247.653 151.535L242.14 171.285L237.733 169.642L239.69 151.539L239.432 127.041L247.938 129.38Z" fill="#FFB6B6"/>
<path d="M242.121 174.47C242.638 171.63 241.69 169.079 240.004 168.772C238.318 168.465 236.531 170.518 236.014 173.358C235.497 176.198 236.445 178.749 238.131 179.056C239.818 179.363 241.604 177.31 242.121 174.47Z" fill="#FFB6B6"/>
<path d="M241.248 103C241.248 103 250.692 103.13 250.684 108.147C250.68 110.979 250.071 136.695 248.378 152.317C247.073 164.364 244.58 167.507 244.58 167.507L238.612 153.944L241.248 103Z" fill="#E6E6E6"/>
<path d="M241.005 148.265H209.109C211.783 142.3 213.426 136.619 210.857 132.1L241.005 130.353C239.498 136.453 239.314 142.439 241.005 148.265Z" fill="#FFB6B6"/>
<path d="M237.072 95.4022L224.402 94.5284L219.158 101.082L216.5 101.565C212.516 102.289 209.679 105.845 209.857 109.89L210.891 133.387L241.177 135.595L248.433 104.997L239.694 101.519L237.072 95.4022V95.4022Z" fill="#E6E6E6"/>
<path d="M159.8 102.49C160.699 103.299 161.341 104.244 161.68 105.16L170.73 112.322L167.196 116.529L158.396 108.81C157.449 108.57 156.442 108.031 155.543 107.223C153.489 105.375 152.777 102.818 153.953 101.512C155.128 100.205 157.746 100.643 159.8 102.49L159.8 102.49Z" fill="#FFB6B6"/>
<path d="M223.788 108.52V108.52L189.109 131.934L164.251 114.637L167.983 107.878L187.548 119.247L205.591 105.394C212.016 99.3598 220.068 100.53 223.788 108.52H223.788Z" fill="#E6E6E6"/>
<path d="M229.986 92.5662C235.177 92.5662 239.386 88.3579 239.386 83.1668C239.386 77.9757 235.177 73.7675 229.986 73.7675C224.794 73.7675 220.585 77.9757 220.585 83.1668C220.585 88.3579 224.794 92.5662 229.986 92.5662Z" fill="#FFB6B6"/>
<path d="M242.763 80.8575V82.6804L232.161 79.6966L224.213 81.3621C224.12 80.1523 223.762 78.9642 223.166 77.9118C223.581 79.5998 223.627 80.9057 223.187 81.5791L222.118 81.8015C221.945 81.3295 221.608 80.9173 221.169 80.6677C221.126 80.6406 221.071 80.6188 221.022 80.6351C220.947 80.6623 220.941 80.7599 220.941 80.8359C220.952 81.2373 220.963 81.6388 220.979 82.0402L217.908 82.6804V80.8575C214.962 74.2293 222.727 68.4938 230.338 68.4343C233.773 68.4074 236.876 69.8231 239.128 72.069C241.374 74.3204 242.763 77.4235 242.763 80.8575Z" fill="#2F2E41"/>
<path d="M248.727 102.231L247.926 102.165C247.983 101.903 248.04 101.645 248.092 101.383C248.536 99.186 247.559 96.3894 247.487 94.2786C247.111 96.5087 247.755 99.2523 247.088 101.37C247.014 101.605 244.117 103.123 244.038 103.355C240.832 102.183 237.493 98.4368 233.712 100.625C231.476 101.919 228.925 101.352 226.386 100.759C225.758 100.612 225.67 97.5095 225.048 97.3876C223.934 97.1693 222.299 99.9899 221.25 100.1L225.591 83.2826C225.591 74.1338 224.743 64.5351 236.334 67.7701C239.249 68.5837 242.134 69.2214 244.285 71.6271C246.437 74.036 247.968 77.4026 248.511 81.2364C248.838 83.5493 250.881 91.4025 248.727 102.231Z" fill="#2F2E41"/>
<path d="M241.242 271.349L236.068 271.471L233.184 248.228L240.82 248.047L241.242 271.349Z" fill="#FFB7B7"/>
<path d="M223.49 282.142C223.49 283.016 224.111 283.725 224.876 283.725H235.146C235.146 283.725 236.157 279.663 240.278 277.915L240.562 283.725H245.86L245.218 274.382C245.218 274.382 246.635 269.384 243.692 266.829C240.749 264.273 243.133 264.629 243.133 264.629L241.975 258.847L233.969 259.788L233.91 268.865L230.025 277.875L224.326 280.69C223.819 280.941 223.49 281.511 223.49 282.142H223.49H223.49Z" fill="#2F2E41"/>
<path d="M225.501 267.561L220.527 268.992L211.838 247.241L219.178 245.129L225.501 267.561Z" fill="#FFB7B7"/>
<path d="M211.069 282.506C211.291 283.351 212.071 283.879 212.811 283.685L222.745 281.079C222.745 281.079 222.692 276.893 226.234 274.157L227.983 279.705L233.108 278.36L230.116 269.486C230.116 269.486 230.218 264.292 226.723 262.567C223.227 260.843 225.624 260.582 225.624 260.582L223.036 255.282L215.531 258.224L217.778 267.019L216.307 276.72L211.509 280.889C211.082 281.26 210.909 281.895 211.069 282.506L211.069 282.506L211.069 282.506Z" fill="#2F2E41"/>
<path d="M238.07 146.892L241.325 147.977C246.415 157.376 248.573 169.858 248.287 184.909L242.504 252.511H233.044L226.121 177.2L213.913 205.467L222.845 252.511L213.913 253.422L195.923 204.504L208.452 147.648L238.07 146.892Z" fill="#2F2E41"/>
</svg>
