<svg width="434" height="525" viewBox="0 0 434 525" fill="none" xmlns="http://www.w3.org/2000/svg">
<path d="M402.821 44.4429H60.4801C47.9219 44.4429 37.7101 54.6628 37.7101 67.231V302.014C37.7101 314.582 47.9219 324.802 60.4801 324.802H402.821C415.379 324.802 425.591 314.582 425.591 302.014V67.231C425.591 54.6628 415.379 44.4429 402.821 44.4429V44.4429Z" fill="#F2F2F2"/>
<path d="M365.68 62.5273H23.3391C10.7809 62.5273 0.569035 72.7471 0.569035 85.3154V320.098C0.569035 332.666 10.7809 342.886 23.3391 342.886H365.68C378.238 342.886 388.45 332.666 388.45 320.098V85.3154C388.45 72.7471 378.238 62.5273 365.68 62.5273ZM386.055 250.995C386.055 300.422 346.019 340.49 296.632 340.49H23.3391C12.0859 340.49 2.96336 331.36 2.96336 320.098V85.3154C2.96336 74.0532 12.0858 64.9235 23.339 64.9235H365.68C376.933 64.9235 386.055 74.0533 386.055 85.3154V250.995Z" fill="#3F3D56"/>
<path d="M49.4686 292.006L47.4425 290.729C48.7595 288.634 50.1186 286.604 51.4806 284.694L53.4295 286.086C52.0938 287.958 50.7616 289.949 49.4686 292.006H49.4686Z" fill="#CCCCCC"/>
<path d="M62.6707 274.929L60.9568 273.256C64.6102 269.509 68.4554 266.292 72.3848 263.695L73.7047 265.695C69.9174 268.197 66.2049 271.304 62.6707 274.929V274.929ZM122.404 259.804C119.545 259.804 116.94 259.438 114.99 259.118L115.377 256.754C117.353 257.077 119.732 257.408 122.404 257.408C124.763 257.408 127.082 257.149 129.493 256.614L130.009 258.955C127.427 259.526 124.939 259.804 122.404 259.804V259.804ZM86.5771 259.487L85.8569 257.202C88.429 256.39 91.0934 255.781 93.7759 255.392C96.0796 255.059 98.2822 254.897 100.509 254.897H100.656V257.293H100.509C98.3979 257.293 96.3082 257.447 94.119 257.764C91.5639 258.134 89.0258 258.714 86.5771 259.487H86.5771ZM143.648 252.562L142.117 250.719C145.421 247.973 147.789 244.651 150.297 241.135L151.297 239.736L153.24 241.137L152.246 242.527C149.646 246.173 147.189 249.618 143.648 252.562V252.562ZM162.849 230.591L161.376 228.701C164.603 226.181 168.25 224.139 172.523 222.458C173.25 222.172 173.946 221.916 174.614 221.688L175.386 223.956C174.752 224.173 174.091 224.416 173.399 224.688C169.343 226.284 165.892 228.214 162.849 230.591ZM191.754 222.268C190.949 222.268 190.185 222.26 189.451 222.252L189.479 219.856C190.229 219.865 191.013 219.867 191.841 219.872C194.659 219.872 198.583 219.792 203.966 219.168L204.242 221.548C198.681 222.193 194.695 222.26 191.754 222.268ZM218.806 219.13L218.332 216.782C222.632 215.911 227.635 214.875 232.588 213.596L233.186 215.917C228.177 217.21 223.137 218.254 218.806 219.13ZM247.29 211.374L246.395 209.151C251.196 207.214 255.364 205.03 259.139 202.472L260.481 204.457C256.565 207.11 252.25 209.373 247.29 211.374ZM271.482 194.252L269.539 192.851C270.207 191.923 270.785 191.018 271.343 190.143C272.991 187.56 274.697 184.888 278.756 181.608L279.04 181.381L280.524 183.261L280.26 183.472C276.504 186.507 274.978 188.9 273.361 191.433C272.785 192.336 272.189 193.269 271.482 194.252ZM292.961 176.28L292.088 174.049C296.355 172.374 301.175 171.027 306.413 170.044L306.855 172.399C301.764 173.355 297.09 174.661 292.961 176.28V176.28Z" fill="#CCCCCC"/>
<path d="M321.49 170.639L321.34 168.248C323.667 168.102 326.099 168.006 328.57 167.961L328.613 170.358C326.177 170.401 323.781 170.496 321.49 170.639Z" fill="#CCCCCC"/>
<path d="M76.1676 88.4919H42.5752C40.8872 88.4919 39.5104 89.8697 39.5104 91.5591C39.5104 93.2604 40.8872 94.6382 42.5752 94.6382H76.1676C77.8556 94.6382 79.2324 93.2604 79.2324 91.5591C79.2324 89.8698 77.8556 88.4919 76.1676 88.4919Z" fill="#E6E6E6"/>
<path d="M132.434 88.4919H98.8418C97.1539 88.4919 95.7771 89.8697 95.7771 91.5591C95.7771 93.2604 97.1539 94.6382 98.8418 94.6382H132.434C134.122 94.6382 135.499 93.2604 135.499 91.5591C135.499 89.8698 134.122 88.4919 132.434 88.4919Z" fill="#E6E6E6"/>
<path d="M188.701 88.4919H155.108C153.421 88.4919 152.044 89.8697 152.044 91.5591C152.044 93.2604 153.421 94.6382 155.108 94.6382H188.701C190.389 94.6382 191.766 93.2604 191.766 91.5591C191.766 89.8698 190.389 88.4919 188.701 88.4919Z" fill="#E6E6E6"/>
<path d="M344.753 290.169H39.4768V292.565H344.753V290.169Z" fill="#E6E6E6"/>
<path d="M328.628 115.244C306.899 115.807 290.69 122.205 280.418 134.234C276.623 138.691 275.078 142.202 273.45 145.916C271.834 149.582 270.182 153.356 266.339 158.281V154.207C268.722 150.709 270.003 147.785 271.26 144.946C272.96 141.064 274.576 137.398 278.598 132.689C289.325 120.109 306.133 113.435 328.556 112.848L328.628 115.244V115.244Z" fill="#CCCCCC"/>
<path d="M273.45 145.916C271.834 149.582 270.182 153.356 266.339 158.281C265.884 158.868 265.393 159.479 264.867 160.114C251.004 176.612 232.483 182.027 217.591 186.389C216.657 186.664 215.747 186.916 214.861 187.155C201.621 190.75 194.366 190.618 188.967 190.534C183.543 190.438 179.964 190.378 173.559 194.044C161.815 200.742 157.002 210.542 152.345 220.02C147.545 229.772 143.019 238.986 131.479 243.311C123.47 246.306 117.843 244.821 111.893 243.263C106.781 241.909 97.5682 208.585 89.4105 203.725C72.5664 207.26 62.3307 262.349 49.5569 291.847L47.3542 290.888C60.4631 260.648 71.2615 205.091 88.9076 201.377C96.773 199.724 107.128 239.525 112.504 240.939C118.082 242.412 123.338 243.79 130.641 241.059C141.295 237.081 145.414 228.682 150.19 218.965C154.788 209.62 159.995 199.029 172.362 191.96C179.341 187.97 183.4 188.042 189.002 188.138C194.342 188.234 201.549 188.353 214.861 184.675C215.532 184.483 216.214 184.292 216.92 184.088C231.502 179.823 249.639 174.515 263.023 158.58C264.34 157.011 265.429 155.561 266.339 154.207C268.721 150.709 270.002 147.785 271.259 144.946C272.959 141.064 275.078 142.202 273.45 145.916V145.916Z" fill="#536DFE"/>
<path d="M145.786 420.021C144.838 416.719 143.215 413.902 141.283 411.892L134.263 379.867L118.962 383.618L127.73 415.701C127.154 418.415 127.269 421.656 128.217 424.959C130.382 432.503 136.07 437.514 140.921 436.151C145.773 434.787 147.951 427.566 145.786 420.021L145.786 420.021Z" fill="#FFB6B6"/>
<path d="M143.669 209.942C143.669 209.942 119.505 209.447 113.361 227.058C107.768 243.088 101.138 287.126 104.722 289.671L119.977 398.083L141.731 395.091L136.148 265.013L143.669 209.942Z" fill="#536DFE"/>
<path d="M255.565 411.179L251.279 525H194.414L192.115 473.996L182.011 525H121.064L128.665 437.322L136.519 418.883L141.834 406.387L255.565 411.179Z" fill="#2F2E41"/>
<path d="M210.073 188.329L170.566 185.933L157.397 202.707L128.665 213.49L141.834 341.688L135.848 418.368C135.848 418.368 219.65 485.462 255.565 411.179L245.987 321.32L248.382 217.084L220.847 205.103L210.073 188.329Z" fill="#536DFE"/>
<path d="M286.129 159.169C286.557 163.323 286.013 167.229 284.76 170.361L291.34 209.673L272.557 212.26L267.904 172.103C266.037 169.293 264.707 165.581 264.278 161.427C263.299 151.938 267.396 143.74 273.43 143.116C279.464 142.492 285.149 149.679 286.129 159.169V159.169H286.129Z" fill="#FFB6B6"/>
<path d="M253.412 221.585C246.937 210.509 230.875 209.465 223.681 220.088C221.714 222.992 222.262 226.256 221.793 230.178C219.799 246.827 251.679 296.026 273.738 301.691C276.633 302.434 278.282 305.559 281.203 306.187H281.203C289.858 308.049 297.916 301.174 297.449 292.327L291.457 178.856L266.284 187.448L267.896 246.36L253.412 221.585L253.412 221.585Z" fill="#536DFE"/>
<path d="M194.419 182.833C213.638 182.833 229.218 167.24 229.218 148.006C229.218 128.772 213.638 113.18 194.419 113.18C175.2 113.18 159.62 128.772 159.62 148.006C159.62 167.24 175.2 182.833 194.419 182.833Z" fill="#FFB6B6"/>
<path d="M226.833 122.433C226.534 122.505 231.414 117.745 231.621 117.641C236.41 115.244 231.49 138.667 228.03 138.009C219.518 136.391 215.843 133.18 212.539 141.196C211.617 143.424 211.042 145.94 209.246 147.534C206.78 149.702 202.686 149.522 200.675 152.11C199.059 154.195 199.526 157.262 200.723 159.611C201.92 161.971 203.74 163.972 204.829 166.38C206.05 169.088 200.842 177.702 198.855 182.542V182.554L198.843 182.583C198.315 183.852 197.06 180.195 195.736 179.83C194.15 179.393 191.815 183.139 189.29 182.459C189.278 182.459 189.266 182.447 189.254 182.447C186.848 181.776 184.166 181.057 181.508 180.338H181.496C174.014 178.301 172.122 181.225 171.763 181.141L167.118 176.276C165.524 175.115 165.704 171.365 164.58 170.358C163.661 169.534 161.369 171.437 160.694 170.646C157.382 166.764 156.62 162.88 154.668 155.213C152.884 148.205 149.185 127.225 156.787 126.279C163.958 125.38 158.714 115.388 165.933 115.76C165.502 113.938 166.304 111.985 167.609 110.644C168.902 109.29 170.626 108.451 172.362 107.732C180.922 104.234 179.497 101.226 188.524 103.263C189.421 102.005 202.459 102.844 204.087 103.263C204.206 103.287 200.052 104.282 206.481 103.263C206.242 104.737 210.312 105.384 210.073 106.858C210.97 105.647 220.62 112.596 220.847 114.046C221.146 115.855 218.417 114.933 220.236 115.208C221.314 115.376 223.158 117.569 222.978 118.659C223.756 117.605 224.534 116.562 225.324 115.508C225.468 115.52 225.6 115.544 225.743 115.568C229.383 116.263 225.21 128.17 225.36 124.458C225.636 117.641 230.46 121.63 226.833 122.433Z" fill="#2F2E41"/>
<path d="M360.149 307.795C360.417 308.456 361.342 308.456 361.61 307.795C363.48 303.183 366.141 298.018 369.036 294.071C369.499 293.439 368.86 292.595 368.124 292.861L361.918 295.108V256.665H359.841V295.108L353.634 292.861C352.897 292.594 352.258 293.439 352.722 294.071C355.616 298.018 358.278 303.183 360.149 307.795Z" fill="#3F3D56"/>
<path d="M400.841 347.378C400.64 348.062 401.365 348.638 401.986 348.287C406.316 345.839 411.609 343.451 416.329 342.162C417.084 341.955 417.109 340.896 416.366 340.647L410.111 338.544L434 308.439L432.373 307.147L408.484 337.251L405.019 331.628C404.608 330.961 403.583 331.224 403.554 332.008C403.368 336.901 402.242 342.602 400.841 347.378Z" fill="#3F3D56"/>
<path d="M381.407 373.032H341.037C338.531 373.032 336.492 370.992 336.492 368.483C331.154 352.87 331.26 337.571 336.492 322.568C336.492 320.059 338.531 318.018 341.037 318.018H381.407C383.914 318.018 385.953 320.059 385.953 322.568V368.483C385.953 370.992 383.914 373.032 381.407 373.032Z" fill="#E6E6E6"/>
<path d="M349.687 319.374C343.147 319.374 337.846 324.679 337.846 331.224V367.509C337.846 369.811 339.711 371.677 342.011 371.677H364.335C375.526 371.677 384.599 362.598 384.599 351.398V323.542C384.599 321.24 382.734 319.374 380.434 319.374H349.687Z" fill="white"/>
<path d="M370.624 332.717H351.723C351.247 332.717 350.859 332.329 350.859 331.852C350.859 331.375 351.247 330.988 351.723 330.988H370.624C371.101 330.988 371.488 331.375 371.488 331.852C371.488 332.329 371.101 332.717 370.624 332.717Z" fill="#E6E6E6"/>
<path d="M370.624 351.159H351.723C351.247 351.159 350.859 350.771 350.859 350.294C350.859 349.817 351.247 349.43 351.723 349.43H370.624C371.101 349.43 371.488 349.817 371.488 350.294C371.488 350.771 371.101 351.159 370.624 351.159Z" fill="#E6E6E6"/>
<path d="M380.766 341.944H341.581C341.105 341.944 340.717 341.556 340.717 341.079C340.717 340.602 341.105 340.215 341.581 340.215H380.766C381.243 340.215 381.63 340.602 381.63 341.079C381.63 341.556 381.243 341.944 380.766 341.944Z" fill="#E6E6E6"/>
<path d="M381.229 358.658H364.878C364.401 358.658 364.014 358.27 364.014 357.793C364.014 357.316 364.401 356.928 364.878 356.928H381.229C381.705 356.928 382.093 357.316 382.093 357.793C382.093 358.27 381.705 358.658 381.229 358.658Z" fill="#E6E6E6"/>
<path d="M14.9206 29.6204C23.161 29.6204 29.8412 23.0757 29.8412 15.0025C29.8412 6.9293 23.161 0.384674 14.9206 0.384674C6.68017 0.384674 0 6.9293 0 15.0025C0 23.0757 6.68017 29.6204 14.9206 29.6204Z" fill="#536DFE"/>
<path d="M134.533 10.0017H54.2209C51.4658 10.0017 49.2241 7.75822 49.2241 5.00084C49.2241 2.24346 51.4657 0 54.2209 0H134.533C137.288 0 139.529 2.24346 139.529 5.00084C139.529 7.75822 137.288 10.0017 134.533 10.0017Z" fill="#F2F2F2"/>
<path d="M197.208 26.9276H54.2209C51.4658 26.9276 49.2241 24.6841 49.2241 21.9267C49.2241 19.1694 51.4657 16.9259 54.2209 16.9259H197.208C199.963 16.9259 202.205 19.1694 202.205 21.9267C202.205 24.6841 199.963 26.9276 197.208 26.9276Z" fill="#F2F2F2"/>
</svg>
