<svg width="354" height="411" viewBox="0 0 354 411" fill="none" xmlns="http://www.w3.org/2000/svg">
<path d="M354 364.833H258.985V363.603H258.985C283.858 363.603 307.713 353.725 325.301 336.143C342.889 318.56 352.77 294.713 352.77 269.847V203.557H354V364.833Z" fill="#F2F2F2"/>
<path d="M94.746 125.238C92.2201 126.2 89.6408 127.016 87.021 127.681C83.5604 128.524 81.6065 128.915 78.2664 127.619C78.1491 127.573 78.0371 127.528 77.9315 127.484C71.6004 124.793 66.1885 120.32 62.3544 114.61C58.5203 108.899 56.4294 102.198 56.3363 95.3212C56.3195 95.0853 56.3195 94.8373 56.3195 94.5953C56.3163 93.4298 56.372 92.2649 56.4865 91.105C56.6329 89.5251 56.8857 87.9569 57.2432 86.411L57.2099 86.4049C54.5056 83.6405 53.4651 79.8538 53.8101 76.049C54.0464 73.4695 54.8653 70.9773 56.2051 68.7601C57.5448 66.5429 59.3705 64.6587 61.5445 63.2493C64.9516 61.1079 68.7932 59.7523 72.79 59.2812C73.8632 59.1574 74.9426 59.0948 76.0229 59.0936H86.1723C88.2684 58.603 90.3979 58.2674 92.5434 58.0895H92.5601C112.987 56.3958 129.096 69.9335 127.593 86.4049C127.582 86.4231 127.565 86.4412 127.554 86.4594C127.12 87.1671 126.736 87.8385 126.397 88.4797C126.069 89.0786 125.79 89.6532 125.551 90.1977C123.687 94.4078 132.546 159.728 129.368 160.72C127.56 161.282 120.271 112.676 121.578 121.919C123.225 133.515 104.156 121.761 94.746 125.238Z" fill="#2F2E41"/>
<path d="M125.518 243.318L153.833 303.622L44.9102 292.594L67.6473 234.703L125.518 243.318Z" fill="#FFB6B6"/>
<path d="M182.359 364.226C163.418 370.529 143.457 373.201 123.524 372.104L114.857 358.051C114.857 358.051 114.494 363.285 113.952 371.286C104.464 370.186 95.0992 368.202 85.9808 365.357C68.6885 359.952 52.4789 351.576 36.0479 343.852C32.7198 324.019 31.471 293.436 49.8706 275.632L148.906 293.774C148.906 293.774 164.796 305.655 160.545 309.911C156.294 314.161 155.636 313.503 158.429 316.295C161.222 319.087 167.256 322.819 167.318 325.261C167.343 326.214 174.116 343.501 182.359 364.226Z" fill="#2F2E41"/>
<path d="M108.224 126.787L84.2971 128.456L68.8324 143.395L63.4163 144.362C58.548 145.23 54.1674 147.853 51.1052 151.735C48.043 155.617 46.5123 160.487 46.8031 165.422C47.9172 184.291 50.4116 212.485 55.625 221.632C63.709 235.815 70.3862 231.365 63.709 235.815C57.0318 240.265 52.5489 236.768 55.625 243.801C58.7011 250.834 51.4675 259.855 51.4675 259.855L48.5879 262.734L51.642 263.985L148.959 276.644C148.959 276.644 140.544 238.822 145.807 229.531C151.069 220.24 163.829 192.155 152.441 181.165L141.307 141.995L122.154 136.348L108.224 126.787Z" fill="#536DFE"/>
<path d="M253.063 282.021C251.462 281.97 249.891 281.572 248.458 280.855C247.026 280.138 245.767 279.118 244.768 277.866C243.768 276.614 243.053 275.16 242.671 273.605C242.289 272.049 242.25 270.429 242.556 268.857L196.907 237.951L202.353 223.227L256.303 260.331C258.912 261.042 261.169 262.686 262.647 264.95C264.124 267.214 264.72 269.941 264.32 272.615C263.921 275.288 262.554 277.723 260.48 279.456C258.405 281.19 255.766 282.103 253.063 282.021V282.021Z" fill="#FFB6B6"/>
<path d="M124.126 140.145L117.493 142.771L152.878 211.859L226.132 261.776L236.691 243.935L180.93 195.786L158.605 152.984C155.464 146.961 150.201 142.315 143.833 139.944C137.465 137.572 130.444 137.644 124.126 140.145Z" fill="#536DFE"/>
<path d="M95.0154 120.711C108.284 120.711 119.041 109.958 119.041 96.6931C119.041 83.4281 108.284 72.6747 95.0154 72.6747C81.7463 72.6747 70.9896 83.4281 70.9896 96.6931C70.9896 109.958 81.7463 120.711 95.0154 120.711Z" fill="#FFB6B6"/>
<path d="M115.908 86.5364C115.508 86.7477 115.112 86.9424 114.712 87.1371C114.294 87.3373 113.877 87.5376 113.454 87.7267C105.414 91.3703 98.8646 91.7764 94.8916 86.5364C94.7829 83.7796 94.1621 81.0671 93.0609 78.5373C93.2555 81.3644 92.5102 84.1765 90.9409 86.5364H82.9394C74.6986 92.0044 70.4697 97.0275 76.1898 114.978C76.5626 116.157 79.1167 158.055 79.8456 161.276C67.3704 156.492 56.6089 105.7 56.3363 92.3159C56.3196 92.099 56.3196 91.8709 56.3196 91.6484C56.3163 90.5763 56.3721 89.5048 56.4865 88.4388C56.6333 86.9834 56.8863 85.5407 57.2433 84.1222L57.2099 84.1166C55.9406 82.9035 54.9723 81.4108 54.382 79.7574C53.7918 78.1041 53.5959 76.3358 53.8101 74.5934C55.9028 71.854 58.4927 69.5329 61.4443 67.7513C64.1283 66.4521 66.9259 65.4019 69.802 64.614C69.8743 64.5973 69.9355 64.5806 70.0079 64.564C70.887 64.3247 71.7885 64.1078 72.6899 63.9187C74.5475 63.5292 76.4257 63.2451 78.3154 63.0676C78.4545 63.062 78.5881 63.0509 78.7105 63.0509C79.4664 63.0514 80.2082 63.2551 80.8583 63.6405C80.8639 63.6405 80.8639 63.6461 80.875 63.6461C81.4997 64.0192 82.0177 64.5469 82.3793 65.1782C82.7409 65.8095 82.9337 66.5232 82.9394 67.2507H91.8535C92.1817 67.2507 92.5101 67.2618 92.8384 67.2785C105.252 67.7736 115.229 73.0803 115.869 85.2792C115.897 85.702 115.908 86.1136 115.908 86.5364Z" fill="#2F2E41"/>
<path d="M63.2065 87.5019C71.9482 87.5019 79.0348 80.4175 79.0348 71.6784C79.0348 62.9394 71.9482 55.855 63.2065 55.855C54.4648 55.855 47.3782 62.9394 47.3782 71.6784C47.3782 80.4175 54.4648 87.5019 63.2065 87.5019Z" fill="#2F2E41"/>
<path d="M84.9371 64.3596C83.1388 72.9118 74.2669 78.0267 65.7794 75.9344C61.7036 74.9296 58.194 72.3474 56.0226 68.7557C53.8513 65.1641 53.1961 60.8572 54.2011 56.7827C56.2941 48.2978 66.5947 50.7439 73.3587 45.2079C82.9274 37.3764 87.3621 52.8263 84.9371 64.3596Z" fill="#2F2E41"/>
<path d="M49.7689 302.418C63.2591 247.423 89.9886 200.153 134.256 163.118C135.969 160.3 138.731 158.277 141.934 157.492C145.138 156.707 148.522 157.225 151.344 158.931L256.579 222.718C259.398 224.431 261.421 227.191 262.206 230.394C262.991 233.596 262.474 236.979 260.767 239.8C243.871 296.232 218.564 345.2 176.28 379.101C174.567 381.919 171.805 383.942 168.602 384.727C165.399 385.512 162.014 384.994 159.192 383.288L53.9568 319.501C51.1385 317.788 49.1147 315.028 48.3296 311.825C47.5445 308.623 48.0621 305.24 49.7689 302.418Z" fill="#F2F2F2"/>
<path opacity="0.2" d="M68.4735 320.953C65.6551 319.24 63.6314 316.48 62.8463 313.277C62.0612 310.075 62.5789 306.692 64.2857 303.87C77.7758 248.875 104.505 201.605 148.773 164.57C149.907 162.725 151.508 161.213 153.415 160.186L151.344 158.931C148.521 157.225 145.137 156.707 141.934 157.492C138.731 158.277 135.969 160.3 134.256 163.117C89.9886 200.153 63.2592 247.422 49.769 302.418C48.0622 305.24 47.5445 308.623 48.3296 311.825C49.1147 315.027 51.1384 317.788 53.9568 319.5L159.192 383.288C161.065 384.414 163.203 385.026 165.388 385.06C167.574 385.095 169.73 384.551 171.638 383.484L68.4735 320.953Z" fill="black"/>
<path d="M191.888 290.227L121.249 247.677C120.127 246.999 119.319 245.904 119.004 244.631C118.69 243.359 118.893 242.013 119.57 240.89C120.246 239.768 121.341 238.959 122.614 238.643C123.886 238.326 125.232 238.528 126.356 239.203L196.995 281.752C198.115 282.432 198.919 283.527 199.232 284.798C199.546 286.069 199.342 287.413 198.666 288.534C197.99 289.656 196.897 290.463 195.627 290.781C194.356 291.098 193.011 290.899 191.888 290.226L191.888 290.227Z" fill="white"/>
<path d="M150.794 233.802L135.254 224.441C134.128 223.767 133.315 222.674 132.995 221.402C132.675 220.129 132.874 218.782 133.548 217.656C134.222 216.53 135.315 215.718 136.588 215.398C137.861 215.078 139.208 215.277 140.335 215.951L140.361 215.967L155.902 225.328C157.022 226.007 157.827 227.102 158.14 228.374C158.453 229.645 158.25 230.989 157.574 232.11C156.898 233.232 155.805 234.04 154.534 234.357C153.263 234.674 151.918 234.474 150.794 233.802Z" fill="white"/>
<path d="M180.661 308.854L110.022 266.304C108.898 265.628 108.089 264.533 107.773 263.261C107.456 261.988 107.658 260.642 108.333 259.519C109.009 258.395 110.103 257.585 111.375 257.267C112.648 256.949 113.994 257.15 115.119 257.824L115.129 257.83L185.768 300.379C186.888 301.059 187.692 302.154 188.005 303.425C188.319 304.696 188.115 306.04 187.439 307.161C186.763 308.283 185.67 309.09 184.4 309.408C183.129 309.725 181.784 309.526 180.661 308.853L180.661 308.854Z" fill="white"/>
<path d="M200.858 209.998C212.253 209.998 221.49 200.764 221.49 189.373C221.49 177.981 212.253 168.747 200.858 168.747C189.463 168.747 180.226 177.981 180.226 189.373C180.226 200.764 189.463 209.998 200.858 209.998Z" fill="#3F3D56"/>
<path d="M165.294 410.385C189.649 410.385 209.392 390.648 209.392 366.3C209.392 341.953 189.649 322.216 165.294 322.216C140.939 322.216 121.196 341.953 121.196 366.3C121.196 390.648 140.939 410.385 165.294 410.385Z" fill="white"/>
<path d="M165.294 411C156.45 411 147.805 408.378 140.452 403.467C133.099 398.555 127.368 391.574 123.984 383.406C120.6 375.238 119.714 366.251 121.44 357.58C123.165 348.909 127.423 340.944 133.677 334.693C139.93 328.442 147.897 324.185 156.57 322.46C165.244 320.735 174.234 321.62 182.405 325.003C190.575 328.386 197.558 334.116 202.471 341.466C207.385 348.817 210.007 357.459 210.007 366.3C209.994 378.151 205.279 389.513 196.896 397.893C188.514 406.273 177.148 410.987 165.294 411ZM165.294 322.831C156.694 322.831 148.287 325.38 141.136 330.157C133.985 334.933 128.412 341.722 125.121 349.665C121.83 357.608 120.969 366.349 122.646 374.781C124.324 383.213 128.466 390.959 134.547 397.038C140.628 403.117 148.376 407.258 156.811 408.935C165.246 410.612 173.989 409.751 181.934 406.461C189.88 403.171 196.671 397.599 201.449 390.451C206.227 383.302 208.777 374.898 208.777 366.3C208.764 354.775 204.178 343.726 196.026 335.577C187.875 327.428 176.822 322.844 165.294 322.831Z" fill="#3F3D56"/>
<path d="M159.278 389.244C158.516 389.244 157.765 389.067 157.084 388.726C156.403 388.386 155.811 387.891 155.354 387.282L143.323 371.246C142.936 370.731 142.654 370.145 142.494 369.521C142.334 368.896 142.298 368.247 142.389 367.609C142.48 366.971 142.696 366.357 143.024 365.803C143.352 365.249 143.786 364.764 144.302 364.378C144.818 363.991 145.404 363.71 146.029 363.55C146.653 363.39 147.303 363.355 147.941 363.447C148.579 363.538 149.193 363.754 149.747 364.083C150.301 364.411 150.786 364.846 151.172 365.362L159.043 375.852L179.258 345.539C179.615 345.003 180.075 344.543 180.61 344.185C181.145 343.826 181.746 343.577 182.378 343.451C183.009 343.324 183.66 343.324 184.291 343.449C184.923 343.574 185.525 343.822 186.061 344.179C186.597 344.536 187.057 344.996 187.415 345.531C187.774 346.066 188.023 346.666 188.15 347.298C188.276 347.929 188.277 348.579 188.152 349.211C188.027 349.843 187.778 350.444 187.421 350.98L163.36 387.06C162.925 387.713 162.339 388.252 161.653 388.631C160.966 389.011 160.199 389.221 159.414 389.243C159.369 389.243 159.323 389.244 159.278 389.244Z" fill="#536DFE"/>
<path d="M307.709 142.9C309.462 142.75 310.798 141.641 310.694 140.422C310.589 139.203 309.084 138.337 307.332 138.487C305.58 138.636 304.244 139.746 304.348 140.964C304.452 142.183 305.957 143.05 307.709 142.9Z" fill="white"/>
<path d="M327.426 136.213C329.178 136.064 330.514 134.954 330.41 133.736C330.306 132.517 328.801 131.65 327.048 131.8C325.296 131.95 323.96 133.059 324.064 134.278C324.168 135.497 325.673 136.363 327.426 136.213Z" fill="#3F3D56"/>
<path d="M298.364 127.862C300.116 127.712 301.452 126.603 301.348 125.384C301.243 124.166 299.738 123.299 297.986 123.449C296.234 123.599 294.898 124.708 295.002 125.927C295.106 127.145 296.611 128.012 298.364 127.862Z" fill="#FF6584"/>
<path d="M290.093 123.016C290.847 122.846 291.26 121.829 291.015 120.745C290.77 119.662 289.96 118.921 289.206 119.091C288.452 119.262 288.039 120.279 288.284 121.362C288.529 122.446 289.339 123.187 290.093 123.016Z" fill="#E6E6E6"/>
<path d="M284.205 111.253C284.959 111.083 285.372 110.066 285.127 108.982C284.882 107.898 284.072 107.158 283.318 107.328C282.564 107.498 282.151 108.515 282.396 109.599C282.641 110.683 283.451 111.423 284.205 111.253Z" fill="#3F3D56"/>
<path d="M312.456 127.773C313.21 127.603 313.623 126.586 313.378 125.502C313.133 124.418 312.323 123.678 311.569 123.848C310.814 124.018 310.402 125.035 310.647 126.119C310.892 127.203 311.702 127.943 312.456 127.773Z" fill="#E6E6E6"/>
<path d="M303.844 134.92C304.598 134.749 305.011 133.733 304.766 132.649C304.521 131.565 303.711 130.824 302.957 130.995C302.203 131.165 301.79 132.182 302.035 133.266C302.28 134.35 303.09 135.09 303.844 134.92Z" fill="#FF6584"/>
<path d="M319.522 140.741C320.276 140.57 320.689 139.554 320.444 138.47C320.199 137.386 319.389 136.645 318.635 136.816C317.88 136.986 317.468 138.003 317.712 139.087C317.957 140.171 318.767 140.911 319.522 140.741Z" fill="#3F3D56"/>
<path d="M226.307 51.7767C226.608 50.5911 225.469 49.2798 223.765 48.8479C222.06 48.416 220.434 49.027 220.133 50.2126C219.833 51.3982 220.971 52.7095 222.676 53.1414C224.381 53.5733 226.007 52.9623 226.307 51.7767Z" fill="white"/>
<path d="M205.488 51.6425C205.788 50.4569 204.65 49.1456 202.945 48.7137C201.24 48.2818 199.615 48.8928 199.314 50.0784C199.013 51.2641 200.152 52.5754 201.857 53.0073C203.562 53.4392 205.187 52.8281 205.488 51.6425Z" fill="#3F3D56"/>
<path d="M230.214 69.0443C230.515 67.8587 229.376 66.5474 227.671 66.1155C225.967 65.6836 224.341 66.2946 224.04 67.4802C223.74 68.6658 224.878 69.9771 226.583 70.409C228.288 70.8409 229.914 70.2299 230.214 69.0443Z" fill="#FF6584"/>
<path d="M235.067 75.5555C235.191 74.4512 234.668 73.4864 233.899 73.4005C233.131 73.3147 232.408 74.1403 232.285 75.2446C232.161 76.3489 232.684 77.3137 233.452 77.3996C234.221 77.4854 234.944 76.6598 235.067 75.5555Z" fill="#E6E6E6"/>
<path d="M236.779 88.5977C236.903 87.4934 236.38 86.5286 235.611 86.4428C234.843 86.3569 234.12 87.1826 233.997 88.2869C233.873 89.3912 234.396 90.356 235.164 90.4418C235.933 90.5276 236.656 89.702 236.779 88.5977Z" fill="#3F3D56"/>
<path d="M215.494 63.7429C215.618 62.6385 215.095 61.6738 214.327 61.5879C213.558 61.5021 212.835 62.3277 212.712 63.432C212.588 64.5363 213.111 65.5011 213.88 65.5869C214.648 65.6728 215.371 64.8472 215.494 63.7429Z" fill="#E6E6E6"/>
<path d="M225.972 59.808C226.095 58.7037 225.572 57.7389 224.804 57.6531C224.035 57.5673 223.312 58.3929 223.189 59.4972C223.066 60.6015 223.588 61.5663 224.357 61.6521C225.125 61.738 225.848 60.9123 225.972 59.808Z" fill="#FF6584"/>
<path d="M213.064 49.1772C213.188 48.0729 212.665 47.1081 211.896 47.0222C211.128 46.9364 210.405 47.762 210.281 48.8663C210.158 49.9706 210.681 50.9354 211.449 51.0213C212.218 51.1071 212.941 50.2815 213.064 49.1772Z" fill="#3F3D56"/>
<path d="M1.23033 161.276H0V0H95.0154V1.22995H95.0153C70.142 1.22995 46.2874 11.1078 28.6993 28.6905C11.1112 46.2732 1.23033 70.1204 1.23033 94.9861V161.276Z" fill="#F2F2F2"/>
<path d="M56.3307 303.001C54.7583 302.357 53.3446 301.379 52.1874 300.135C51.0302 298.891 50.1572 297.411 49.6286 295.796C49.1 294.182 48.9285 292.472 49.1261 290.784C49.3236 289.097 49.8853 287.473 50.7725 286.024L16.8736 238.387L27.7486 225.774L67.597 282.647C69.9255 284.322 71.5587 286.792 72.1872 289.589C72.8157 292.387 72.3958 295.318 71.0071 297.827C69.6184 300.336 67.3573 302.248 64.6524 303.202C61.9474 304.155 58.9865 304.084 56.3307 303.001H56.3307Z" fill="#FFB6B6"/>
<path d="M57.1096 152.042C55.3946 151.033 53.3761 150.668 51.4165 151.013C49.4568 151.358 47.6842 152.39 46.417 153.924L0.615112 217.96L43.0615 278.228L59.671 260.394L33.834 219.805L68.1715 187.122C70.9932 180.942 71.4243 173.937 69.3813 167.458C67.3383 160.979 62.9663 155.487 57.1096 152.042Z" fill="#536DFE"/>
</svg>
